<svg width="0" height="0" style="position:absolute"><symbol viewBox="0 0 2000 2008.275" id="bootstrap" xmlns="http://www.w3.org/2000/svg"><path stroke="#333" stroke-miterlimit="10" d="M323.077 0h1353.847C1855.354 0 2000 144.646 2000 323.077v1362.122c0 178.43-144.646 323.076-323.076 323.076H323.077C144.646 2008.275 0 1863.629 0 1685.199V323.077C0 144.646 144.646 0 323.077 0z"/><path fill="#333" d="M1015.104 864.568c51.076.001 89.804-11.11 116.186-33.33 26.38-22.218 39.57-54.991 39.571-98.322 0-42.773-13.19-75.27-39.571-97.49-26.38-22.774-65.11-34.161-116.186-34.162H835.773v263.304h179.33m10.946 544.106c65.11 0 113.94-13.608 146.496-40.83 33.116-27.218 49.673-68.325 49.674-123.32 0-53.882-16.278-94.154-48.831-120.82-32.556-27.218-81.668-40.828-147.338-40.83H835.773v325.798h190.276m301.412-447.448c69.599 19.998 123.483 56.94 161.651 110.821 38.167 53.884 57.25 119.988 57.251 198.312 0 119.986-40.975 209.422-122.922 268.303-81.949 58.883-206.555 88.325-373.818 88.325H511.63V382.953h486.637c174.56.001 300.85 26.11 378.87 78.325 78.58 52.217 117.87 135.82 117.87 250.805-.001 60.551-14.313 112.21-42.938 154.982-28.627 42.219-70.162 73.604-124.606 94.156"/></symbol><symbol viewBox="0 0 962.439 790.705" id="logo" xmlns="http://www.w3.org/2000/svg"><path fill="#FFF" d="M912.534 591.63c-.804 7.976-3.592 14.258-8.378 18.849-4.786 4.58-10.975 6.879-18.546 6.879-3.993 0-7.779-.597-11.369-1.795-7.581 5.983-16.557 10.564-26.924 13.762-10.376 3.188-20.146 6.375-29.316 9.572a298.399 298.399 0 0 1-32.908-2.99c-10.769-1.6-21.941-2.001-33.505-1.197-3.991-2.795-8.18-4.591-12.564-5.385a98.126 98.126 0 0 0-13.462-1.496c-4.59-.204-8.975-.897-13.163-2.093-4.188-1.197-8.282-3.994-12.266-8.378h-29.915c-2.795 0-6.881-1.299-12.265-3.888-5.385-2.6-11.368-5.292-17.95-8.078-6.581-2.795-13.564-5.385-20.939-7.777-7.387-2.395-14.267-3.591-20.644-3.591h-3.59c-4.394-3.591-9.479-6.282-15.258-8.076a252.537 252.537 0 0 0-17.648-4.787 380.096 380.096 0 0 1-17.352-4.487c-5.591-1.599-10.377-3.796-14.359-6.582-3.991-2.796-8.581-5.683-13.761-8.675-5.188-2.991-10.573-4.281-16.154-3.889a173.089 173.089 0 0 0-23.633-11.368 531.597 531.597 0 0 0-24.83-8.975l-24.53-8.976c-7.984-3.187-15.958-6.973-23.932-11.368-1.197.403-2.6.403-4.188 0-1.599-.393-2.993-.598-4.189-.598-2.394 0-3.795.805-4.188 2.394a47.014 47.014 0 0 0-9.273-7.181c-3.394-1.989-6.685-4.383-9.874-7.179a43.111 43.111 0 0 1-4.487.898c-1.402.203-3.094.298-5.085.298-3.59 0-7.086-.394-10.47-1.196a80.07 80.07 0 0 1-9.873-2.992c-3.59 7.985-5.983 16.958-7.18 26.924a493.084 493.084 0 0 0-2.693 30.812 1717.284 1717.284 0 0 1-2.094 31.711c-.804 10.563-2.599 20.24-5.385 29.018a39.434 39.434 0 0 1 1.197 9.574v10.171c0 6.777.99 12.164 2.991 16.154a295.448 295.448 0 0 0-2.093 10.173 168.172 168.172 0 0 1-2.095 9.571c.393 4.384.692 8.47.898 12.265.196 3.788.299 7.873.299 12.267v10.17c0 3.592-.402 7.182-1.197 10.771a381.904 381.904 0 0 1-11.966 6.88c-3.992 2.188-7.983 4.88-11.966 8.076-2.795-5.188-7.582-8.178-14.36-8.974-1.599 1.991-2.692 4.683-3.291 8.077-.598 3.385-2.495 5.085-5.684 5.085a3133.8 3133.8 0 0 0-13.76-10.769c-3.59-2.795-7.582-6.983-11.967-12.565-.401-.804-.598-1.794-.598-2.99 0-2.002.393-3.796 1.196-5.385.795-1.6 1.197-3.198 1.197-4.788 0-4.785-.599-8.975-1.795-12.563a205.333 205.333 0 0 1-1.795-15.258c-.402-4.991-.599-9.87-.599-14.659 0-6.785.496-13.367 1.496-19.741.991-6.386 2.889-12.969 5.684-19.746 4.385-11.573 7.479-23.735 9.274-36.497a498.803 498.803 0 0 0 3.889-38.59 858.386 858.386 0 0 0 1.496-39.19c.196-13.162.898-25.726 2.094-37.692-2.795-6.376-6.085-11.462-9.872-15.259-3.795-3.785-5.684-9.871-5.684-18.248 0-7.572 2.393-13.462 7.179-17.65 4.787-4.188 8.975-9.273 12.564-15.256-.803-2.394-.205-3.982 1.795-4.786l7.18-62.823c.393-4.384 1.094-9.171 2.095-14.359.99-5.179 1.692-9.966 2.093-14.359.795-9.171 1.197-18.146 1.197-26.924 0-8.769.392-17.547 1.197-26.326 1.99-19.539 3.888-38.89 5.684-58.036a615.007 615.007 0 0 0 2.693-57.438c0-9.171-.3-18.342-.898-27.523-.599-9.171-1.898-18.342-3.889-27.521a935.7 935.7 0 0 1-22.437 6.281c-8.18 2.198-15.06 5.891-20.641 11.069h-4.787c-10.377 0-20.043 2-29.018 5.983a649.847 649.847 0 0 1-27.223 11.368c-3.983 2-7.975 3.291-11.967 3.888-3.983.599-8.171 1.496-12.565 2.693-1.991.402-4.188 1.598-6.581 3.59-2.394 2-4.581 3.393-6.582 4.188l-10.171 2.393c-2.786.804-3.982 2.599-3.589 5.384.402 2.796-.599 4.591-2.992 5.385-1.991 2-4.786 2.898-8.376 2.692-3.589-.197-6.375-.299-8.376-.299h-2.394c-9.965 7.18-19.641 13.266-29.018 18.249-9.367 4.992-20.436 8.283-33.206 9.873l-13.163 8.376c-4.384 2.795-9.368 4.188-14.958 4.188-4.384 0-7.975-.795-10.77-2.394-3.188-4.787-5.684-10.171-7.479-16.155-1.795-5.982-4.88-11.161-9.274-15.556 2.001-1.991 3.291-4.684 3.889-8.077.598-3.384 1.3-6.479 2.095-9.273a1169.777 1169.777 0 0 1 36.197-14.958 227.381 227.381 0 0 0 35.001-17.351c1.196.402 2.992.598 5.385.598 3.992 0 7.582-.598 10.77-1.795a97.676 97.676 0 0 0 9.573-4.188 102.418 102.418 0 0 1 9.573-4.188c3.197-1.196 6.983-1.589 11.368-1.196 13.564-7.572 27.924-13.762 43.078-18.548a191.145 191.145 0 0 0 43.078-19.744c1.992 0 3.684.402 5.086 1.196a8.82 8.82 0 0 0 4.487 1.197c1.589 0 2.589-.196 2.991-.599 2.394-3.188 5.582-5.478 9.574-6.88a125.49 125.49 0 0 1 12.265-3.59 60.504 60.504 0 0 0 11.965-4.188c3.786-1.794 6.283-4.684 7.479-8.675 1.992 1.599 4.983 2.394 8.975 2.394 6.778 0 13.06-1.393 18.847-4.188 5.778-2.786 12.06-4.188 18.847-4.188 1.589 0 3.085.3 4.487.897 1.394.598 2.889.898 4.487.898 3.188 0 4.88-.992 5.086-2.992.196-1.992 1.29-3.786 3.29-5.385a2403.087 2403.087 0 0 1 72.695-11.966c24.128-3.589 48.557-5.385 73.292-5.385 3.59-2.393 7.572-3.59 11.967-3.59 4.385 0 8.376 1.197 11.966 3.59a355.34 355.34 0 0 1 20.342-1.795 351.326 351.326 0 0 1 20.343-.598c15.558 0 31.505 1 47.864 2.991 16.352 2 32.608 5.086 48.763 9.274 16.155 4.188 31.608 9.779 46.37 16.752 14.751 6.984 28.512 15.257 41.282 24.83 1.197 3.59 2.787 7.18 4.787 10.77 1.991 3.59 4.581 6.385 7.776 8.377 0 .804-.101 1.402-.297 1.794-.207.402-.3 1-.3 1.795 0 4.394 1.29 8.582 3.888 12.564 2.591 3.992 3.891 8.779 3.891 14.359 0 5.591-.898 11.172-2.693 16.753-1.793 5.59-2.496 11.172-2.094 16.753-4.394 6.385-8.076 12.171-11.068 17.351-2.992 5.188-4.89 11.769-5.684 19.744a145.802 145.802 0 0 0-19.146 23.633 799.149 799.149 0 0 1-17.051 25.129c-5.787 8.18-12.267 15.659-19.446 22.437-7.179 6.787-15.761 12.172-25.727 16.155-.401 3.992-2.001 8.375-4.787 13.162h-12.563c-1.197 3.198-3.198 5.59-5.985 7.18l-8.376 4.786c-2.794 1.599-5.083 3.59-6.879 5.983s-2.693 5.787-2.693 10.171c-.803-.392-1.794-.599-2.991-.599-3.992 0-8.676 2.001-14.061 5.983a2855.08 2855.08 0 0 0-12.863 9.573c-6.787 4.787-13.669 9.181-20.642 13.163-6.984 3.992-13.068 9.572-18.249 16.753-15.957 6.786-31.11 14.657-45.472 23.633-14.359 8.975-29.916 16.061-46.668 21.24-6.384 6.786-13.863 12.068-22.436 15.855a320.038 320.038 0 0 0-24.83 12.265v1.794c0 3.199 1.196 6.283 3.59 9.275a38.587 38.587 0 0 0 8.376 7.777 28.573 28.573 0 0 0 10.47 4.487c3.786.805 7.077.805 9.873 0 7.974 7.18 17.145 12.966 27.521 17.352 10.368 4.395 21.137 8.376 32.309 11.967a810.548 810.548 0 0 1 32.907 11.367c10.771 3.991 20.735 8.975 29.915 14.957h14.36c9.171 7.985 20.043 13.967 32.608 17.949 12.563 3.992 24.624 7.582 36.197 10.77 4.786 4.395 10.862 7.686 18.247 9.873 7.378 2.198 14.453 3.291 21.24 3.291h3.591c1.589 0 2.991-.196 4.188-.599v1.195c0 2.002.598 3.291 1.794 3.891 1.198.598 2.488.999 3.89 1.196 1.393.205 2.786.598 4.188 1.196 1.394.599 2.486 1.495 3.291 2.692h5.982c8.377 0 16.351 1.701 23.933 5.085 7.572 3.394 15.557 5.087 23.933 5.087 3.59 0 6.376-.393 8.376-1.198 2.394.806 4.188 2.395 5.386 4.788 1.196 2.394 2.785 4.385 4.785 5.982 2.787-.401 5.386-.701 7.777-.898a84.55 84.55 0 0 1 7.181-.298c8.77 0 16.949.991 24.53 2.992 7.572 1.99 15.352 4.981 23.334 8.975 12.762-5.592 25.326-10.172 37.694-13.762 12.359-3.591 25.521-5.385 39.489-5.385v1.196c0 4.786 1.29 9.273 3.888 13.463a114.541 114.541 0 0 1 6.887 12.866zM683.381 114.179c0-4.787-.898-8.573-2.695-11.368-1.794-2.786-4.094-5.282-6.878-7.479a144.08 144.08 0 0 0-8.677-6.283c-2.989-1.99-5.685-4.58-8.077-7.778a390.327 390.327 0 0 1-30.515-10.769 275.74 275.74 0 0 0-30.513-10.171 443.88 443.88 0 0 0-15.557-3.291 82.79 82.79 0 0 0-15.556-1.496H551.75a117.631 117.631 0 0 1-7.477-1.496c-2.6-.598-5.087-1.093-7.48-1.496a248.423 248.423 0 0 0-16.452-1.795 226.642 226.642 0 0 0-16.455-.598c-10.377 0-20.745.402-31.112 1.197l-31.111 2.394c-4.394.401-8.974.598-13.761.598-4.786 0-9.181.402-13.163 1.197-2 .402-4.786 1.3-8.376 2.693a338.08 338.08 0 0 1-11.368 4.188 209.64 209.64 0 0 0-11.667 4.486c-3.795 1.599-7.086 2.796-9.872 3.59.392 2.795.598 5.59.598 8.376v7.777c0 5.983-.206 11.967-.598 17.95a138.846 138.846 0 0 1-2.394 17.949c-.402 2.393-1 4.786-1.795 7.18a45.833 45.833 0 0 0-1.795 7.18c-.804 3.589-1.197 7.582-1.197 11.965v11.369a632.481 632.481 0 0 0-1.794 26.923c-.402 8.779-1 17.753-1.796 26.925a8785.816 8785.816 0 0 1-7.479 78.379 1126.025 1126.025 0 0 0-5.085 78.378c13.163-2.786 25.727-6.975 37.693-12.564a492.923 492.923 0 0 0 35.301-18.249 2975.98 2975.98 0 0 1 34.702-19.445c11.563-6.375 23.726-11.761 36.496-16.154 3.188-4.384 7.077-7.975 11.666-10.769 4.582-2.787 8.471-6.376 11.668-10.77 3.983 0 6.975-.897 8.976-2.692 1.99-1.795 4.581-3.085 7.777-3.889 19.146-16.752 38.685-32.504 58.635-47.266a722.633 722.633 0 0 0 57.437-47.267c1.59-5.581 4.283-11.069 8.078-16.454a469.416 469.416 0 0 0 11.068-16.454c3.59-5.581 6.777-11.162 9.574-16.752 2.786-5.581 4.189-11.564 4.189-17.949z"/><path fill="#D3649F" d="M961.928 641.824c-.804 7.975-3.59 14.259-8.377 18.847-4.787 4.583-10.976 6.881-18.547 6.881-3.994 0-7.779-.598-11.369-1.794-7.581 5.982-16.556 10.564-26.924 13.76-10.376 3.189-20.146 6.377-29.317 9.574a298.565 298.565 0 0 1-32.905-2.991c-10.771-1.599-21.943-2.001-33.506-1.196-3.994-2.797-8.182-4.592-12.565-5.387a98.32 98.32 0 0 0-13.461-1.494c-4.592-.208-8.976-.897-13.164-2.094-4.189-1.197-8.284-3.994-12.265-8.378h-29.916c-2.796 0-6.883-1.298-12.267-3.888-5.384-2.6-11.368-5.291-17.949-8.077-6.581-2.795-13.563-5.385-20.939-7.778-7.385-2.395-14.268-3.59-20.642-3.59h-3.591c-4.393-3.591-9.479-6.282-15.258-8.079a253.508 253.508 0 0 0-17.649-4.784 382.645 382.645 0 0 1-17.35-4.486c-5.592-1.602-10.378-3.798-14.359-6.584-3.993-2.795-8.583-5.684-13.763-8.676-5.188-2.99-10.573-4.28-16.154-3.887a173.095 173.095 0 0 0-23.633-11.369 532.704 532.704 0 0 0-24.829-8.975l-24.531-8.975c-7.984-3.187-15.958-6.974-23.933-11.368-1.197.402-2.599.402-4.188 0-1.599-.394-2.992-.598-4.188-.598-2.394 0-3.796.805-4.188 2.391a47.052 47.052 0 0 0-9.274-7.178c-3.394-1.989-6.685-4.384-9.873-7.18a43.374 43.374 0 0 1-4.487.898c-1.402.205-3.094.298-5.086.298-3.59 0-7.086-.393-10.47-1.196a80 80 0 0 1-9.872-2.991c-3.59 7.984-5.983 16.957-7.18 26.924a493.71 493.71 0 0 0-2.693 30.812 1709.253 1709.253 0 0 1-2.093 31.712c-.804 10.563-2.599 20.24-5.385 29.018a39.424 39.424 0 0 1 1.197 9.572v10.172c0 6.776.99 12.163 2.991 16.155a295.376 295.376 0 0 0-2.093 10.171 168.204 168.204 0 0 1-2.095 9.572c.393 4.383.692 8.471.898 12.266.196 3.786.299 7.872.299 12.265v10.172c0 3.59-.402 7.181-1.197 10.771a381.861 381.861 0 0 1-11.966 6.879c-3.992 2.188-7.983 4.88-11.966 8.079-2.794-5.189-7.581-8.18-14.359-8.976-1.598 1.992-2.692 4.684-3.291 8.078-.598 3.383-2.496 5.084-5.684 5.084a3050.58 3050.58 0 0 0-13.761-10.769c-3.59-2.796-7.582-6.985-11.966-12.565-.402-.804-.599-1.795-.599-2.991 0-2.001.393-3.794 1.196-5.385.795-1.599 1.197-3.197 1.197-4.786 0-4.787-.598-8.976-1.795-12.564a204.715 204.715 0 0 1-1.795-15.257 182.447 182.447 0 0 1-.598-14.658c0-6.787.496-13.37 1.496-19.744.991-6.385 2.888-12.966 5.684-19.745 4.384-11.573 7.479-23.735 9.274-36.496a498.854 498.854 0 0 0 3.889-38.592 861.057 861.057 0 0 0 1.496-39.189c.197-13.164.898-25.727 2.094-37.694-2.796-6.374-6.086-11.461-9.873-15.257-3.795-3.786-5.684-9.871-5.684-18.248 0-7.571 2.394-13.463 7.179-17.65 4.787-4.188 8.975-9.273 12.565-15.256-.804-2.393-.205-3.983 1.795-4.787l7.18-62.822c.392-4.385 1.093-9.171 2.094-14.36.991-5.179 1.692-9.965 2.093-14.358.796-9.171 1.198-18.146 1.198-26.924 0-8.77.392-17.547 1.197-26.326a7180.209 7180.209 0 0 0 5.683-58.036 615.007 615.007 0 0 0 2.693-57.438c0-9.171-.299-18.342-.897-27.522-.598-9.171-1.898-18.342-3.889-27.522-6.787 2-14.267 4.094-22.437 6.282-8.181 2.197-15.061 5.89-20.642 11.069h-4.787c-10.377 0-20.043 2-29.018 5.983a651.192 651.192 0 0 1-27.223 11.368c-3.983 2-7.975 3.291-11.967 3.889-3.982.599-8.17 1.496-12.564 2.693-1.991.402-4.188 1.599-6.581 3.59-2.393 2-4.581 3.393-6.582 4.188l-10.171 2.393c-2.786.804-3.982 2.599-3.59 5.384.402 2.795-.598 4.59-2.992 5.385-1.991 2-4.786 2.898-8.376 2.692-3.59-.196-6.375-.3-8.376-.3h-2.393c-9.966 7.181-19.641 13.266-29.018 18.249-9.368 4.992-20.437 8.283-33.207 9.872l-13.163 8.377c-4.385 2.794-9.368 4.188-14.958 4.188-4.384 0-7.974-.794-10.77-2.394-3.188-4.786-5.684-10.171-7.479-16.154-1.794-5.983-4.88-11.162-9.273-15.556 2-1.991 3.291-4.684 3.889-8.078.598-3.384 1.3-6.479 2.095-9.273a1169.777 1169.777 0 0 1 36.197-14.958 227.29 227.29 0 0 0 35.001-17.351c1.196.401 2.991.598 5.384.598 3.992 0 7.582-.598 10.77-1.795a97.916 97.916 0 0 0 9.573-4.188 102.533 102.533 0 0 1 9.573-4.188c3.197-1.196 6.984-1.589 11.368-1.196 13.564-7.573 27.924-13.762 43.078-18.548a191.165 191.165 0 0 0 43.078-19.744c1.992 0 3.684.402 5.086 1.197a8.82 8.82 0 0 0 4.487 1.197c1.59 0 2.589-.197 2.992-.599 2.394-3.188 5.581-5.478 9.573-6.88a125.51 125.51 0 0 1 12.266-3.59 60.472 60.472 0 0 0 11.966-4.188c3.787-1.794 6.283-4.683 7.479-8.675 1.992 1.599 4.983 2.393 8.975 2.393 6.778 0 13.06-1.393 18.847-4.188 5.778-2.786 12.06-4.188 18.847-4.188 1.589 0 3.084.299 4.487.897 1.393.598 2.889.897 4.487.897 3.188 0 4.879-.992 5.085-2.992.196-1.991 1.29-3.786 3.29-5.385a2403.605 2403.605 0 0 1 72.695-11.966c24.129-3.59 48.558-5.385 73.293-5.385 3.59-2.393 7.572-3.59 11.965-3.59 4.386 0 8.377 1.197 11.968 3.59a354.234 354.234 0 0 1 20.343-1.795 352.117 352.117 0 0 1 20.34-.598c15.559 0 31.507 1 47.868 2.991 16.349 2 32.608 5.085 48.761 9.274 16.155 4.188 31.607 9.779 46.369 16.753 14.753 6.983 28.512 15.256 41.285 24.83 1.196 3.589 2.784 7.18 4.784 10.77 1.993 3.589 4.581 6.385 7.777 8.376 0 .804-.101 1.402-.297 1.795-.207.402-.3 1-.3 1.795 0 4.394 1.289 8.583 3.888 12.564 2.59 3.992 3.89 8.778 3.89 14.359 0 5.59-.897 11.172-2.692 16.752-1.794 5.591-2.496 11.172-2.094 16.753-4.393 6.385-8.076 12.172-11.069 17.351-2.991 5.188-4.889 11.769-5.685 19.744a146.208 146.208 0 0 0-19.146 23.633 792.876 792.876 0 0 1-17.051 25.129c-5.787 8.179-12.266 15.658-19.445 22.437-7.178 6.787-15.761 12.172-25.727 16.153-.402 3.993-2.002 8.377-4.789 13.164h-12.562c-1.196 3.197-3.198 5.59-5.983 7.18l-8.377 4.786c-2.795 1.6-5.085 3.589-6.88 5.983-1.795 2.393-2.693 5.786-2.693 10.171-.804-.393-1.793-.599-2.99-.599-3.993 0-8.677 2.001-14.061 5.983a2665.44 2665.44 0 0 0-12.862 9.573c-6.789 4.786-13.67 9.18-20.645 13.163-6.981 3.991-13.068 9.573-18.246 16.752-15.959 6.788-31.112 14.658-45.473 23.634-14.359 8.975-29.916 16.062-46.668 21.24-6.386 6.786-13.863 12.069-22.437 15.855a320.403 320.403 0 0 0-24.83 12.266v1.794c0 3.198 1.196 6.281 3.59 9.274a38.564 38.564 0 0 0 8.376 7.777 28.592 28.592 0 0 0 10.47 4.488c3.787.805 7.078.805 9.873 0 7.975 7.179 17.146 12.965 27.521 17.35 10.368 4.395 21.138 8.378 32.31 11.968a807.487 807.487 0 0 1 32.907 11.367c10.771 3.992 20.734 8.974 29.917 14.958h14.358c9.17 7.984 20.042 13.966 32.608 17.949 12.562 3.991 24.623 7.581 36.195 10.769 4.788 4.394 10.865 7.685 18.25 9.871 7.377 2.198 14.452 3.293 21.24 3.293h3.59c1.591 0 2.991-.195 4.188-.599v1.196c0 2.002.598 3.291 1.794 3.89 1.197.599 2.488.999 3.891 1.195 1.393.207 2.786.599 4.188 1.197 1.394.599 2.487 1.496 3.291 2.692h5.983c8.375 0 16.351 1.702 23.932 5.084 7.573 3.395 15.558 5.089 23.933 5.089 3.591 0 6.377-.395 8.378-1.198 2.391.804 4.188 2.395 5.384 4.788 1.197 2.393 2.786 4.384 4.785 5.981 2.786-.402 5.387-.701 7.778-.897a84.517 84.517 0 0 1 7.181-.299c8.771 0 16.948.991 24.531 2.992 7.573 1.99 15.351 4.981 23.334 8.975 12.761-5.592 25.326-10.171 37.692-13.761 12.359-3.591 25.522-5.385 39.488-5.385v1.196c0 4.785 1.29 9.272 3.892 13.463 2.591 4.188 4.88 8.47 6.882 12.863zM732.776 164.373c0-4.787-.899-8.573-2.693-11.367-1.795-2.786-4.095-5.283-6.882-7.479a144.208 144.208 0 0 0-8.674-6.283c-2.991-1.991-5.685-4.581-8.078-7.777a390.333 390.333 0 0 1-30.515-10.77 275.954 275.954 0 0 0-30.513-10.172 442.013 442.013 0 0 0-15.556-3.29 82.798 82.798 0 0 0-15.556-1.496h-13.164a118.388 118.388 0 0 1-7.479-1.496 128.373 128.373 0 0 0-7.479-1.496 247.928 247.928 0 0 0-16.453-1.795 226.078 226.078 0 0 0-16.453-.599c-10.377 0-20.745.402-31.113 1.197l-31.112 2.394c-4.393.401-8.973.597-13.76.597-4.787 0-9.181.402-13.164 1.197-2 .402-4.786 1.3-8.376 2.693a341.03 341.03 0 0 1-11.367 4.188 209.34 209.34 0 0 0-11.667 4.487c-3.795 1.599-7.086 2.796-9.873 3.59.393 2.795.599 5.59.599 8.376v7.778c0 5.983-.206 11.966-.599 17.95a138.669 138.669 0 0 1-2.393 17.949c-.402 2.393-1 4.786-1.795 7.18a45.738 45.738 0 0 0-1.795 7.179c-.804 3.59-1.196 7.582-1.196 11.966v11.368a632.447 632.447 0 0 0-1.795 26.924 663.02 663.02 0 0 1-1.795 26.924 8826.74 8826.74 0 0 1-7.479 78.379 1126.134 1126.134 0 0 0-5.085 78.379c13.162-2.785 25.727-6.974 37.693-12.564a493.497 493.497 0 0 0 35.3-18.248 2986.09 2986.09 0 0 1 34.701-19.447c11.565-6.375 23.728-11.76 36.499-16.153 3.188-4.385 7.075-7.974 11.665-10.77 4.582-2.786 8.47-6.376 11.669-10.77 3.981 0 6.974-.896 8.975-2.692 1.989-1.795 4.579-3.086 7.776-3.889 19.147-16.753 38.686-32.505 58.634-47.267a721.713 721.713 0 0 0 57.438-47.267c1.591-5.581 4.283-11.069 8.078-16.453a471.76 471.76 0 0 0 11.068-16.454c3.59-5.582 6.777-11.162 9.572-16.752 2.789-5.581 4.192-11.564 4.192-17.949z"/></symbol></svg>