<?xml version="1.0" encoding="utf-8"?>
<!-- Generator: Adobe Illustrator 16.0.0, SVG Export Plug-In . SVG Version: 6.00 Build 0)  -->
<!DOCTYPE svg PUBLIC "-//W3C//DTD SVG 1.1//EN" "http://www.w3.org/Graphics/SVG/1.1/DTD/svg11.dtd">
<svg version="1.1" xmlns="http://www.w3.org/2000/svg" xmlns:xlink="http://www.w3.org/1999/xlink" x="0px" y="0px" width="100%"
	 height="100%" viewBox="0 0 2000 2008.275" enable-background="new 0 0 2000 2008.275"
	 xml:space="preserve">
	 <g>
		<path stroke="#333333" stroke-miterlimit="10" d="M323.077,0h1353.847
		C1855.354,0,2000,144.646,2000,323.077v1362.122c0,178.43-144.646,323.076-323.076,323.076H323.077
		C144.646,2008.275,0,1863.629,0,1685.199V323.077C0,144.646,144.646,0,323.077,0z"/>
	</g>
	<g id="text3836" transform="scale(1.0052013,0.99482561)">
		<path fill="#333333" d="M1009.851,869.065
			c50.812,0.001,89.34-11.167,115.585-33.503c26.243-22.334,39.366-55.278,39.367-98.834c-0.001-42.995-13.123-75.661-39.367-97.997
			c-26.244-22.892-64.772-34.339-115.585-34.34H831.448v264.674H1009.851 M1020.74,1416.001c64.772,0,113.351-13.679,145.738-41.042
			c32.944-27.36,49.416-68.681,49.417-123.961c-0.001-54.163-16.194-94.645-48.579-121.449
			c-32.387-27.36-81.245-41.041-146.575-41.042H831.448v327.492H1020.74 M1320.592,966.224
			c69.239,20.102,122.844,57.235,160.815,111.397c37.969,54.164,56.954,120.612,56.955,199.344
			c-0.001,120.61-40.763,210.511-122.286,269.698c-81.525,59.189-205.487,88.784-371.884,88.784h-535.21V384.945h484.119
			c173.656,0.001,299.292,26.245,376.909,78.732c78.173,52.489,117.26,136.526,117.261,252.11
			c-0.002,60.866-14.24,112.794-42.717,155.788c-28.478,42.438-69.799,73.987-123.961,94.646"/>
	</g>
</svg>
